<svg width="36" height="36" viewBox="0 0 36 36" fill="none" xmlns="http://www.w3.org/2000/svg">
<path d="M10.7812 20.0504L15.935 25.2071L13.8744 27.2692L15.9379 29.3327L13.8758 31.3948L10.2664 27.7854L6.14082 31.911L4.07874 29.849L8.20436 25.7219L4.59499 22.114L6.65707 20.0519L8.71915 22.1125L10.7798 20.0504H10.7812ZM4.87499 4.875L10.0462 4.87938L27.2794 22.114L29.3429 20.0519L31.405 22.114L27.7971 25.7233L31.9212 29.849L29.8592 31.911L25.7335 27.7854L22.1242 31.3948L20.0621 29.3327L22.1242 27.2692L4.87936 10.0244L4.87499 4.875ZM25.9581 4.875L31.125 4.87938L31.1279 10.0171L25.2173 15.9263L20.0606 10.771L25.9581 4.875Z" fill="white"/>
</svg>
