<svg width="12" height="20" viewBox="0 0 12 20" fill="none" xmlns="http://www.w3.org/2000/svg">
<path d="M10.88 0.879991C10.7639 0.763583 10.626 0.671225 10.4741 0.608209C10.3222 0.545193 10.1594 0.512756 9.99501 0.512756C9.83059 0.512756 9.66779 0.545193 9.51592 0.608209C9.36406 0.671225 9.22612 0.763583 9.11001 0.879991L0.700006 9.28999C0.607302 9.3825 0.533755 9.49239 0.483573 9.61337C0.433392 9.73434 0.407562 9.86402 0.407562 9.99499C0.407562 10.126 0.433392 10.2556 0.483573 10.3766C0.533755 10.4976 0.607302 10.6075 0.700006 10.7L9.11001 19.11C9.60001 19.6 10.39 19.6 10.88 19.11C11.37 18.62 11.37 17.83 10.88 17.34L3.54001 9.99999L10.89 2.64999C11.37 2.15999 11.37 1.36999 10.88 0.879991V0.879991Z" fill="white"/>
</svg>
