<svg width="35" height="36" viewBox="0 0 35 36" fill="none" xmlns="http://www.w3.org/2000/svg">
<path d="M31.9783 17.4269C31.6837 16.7152 31.0523 16.5446 30.625 16.5038V12.1667C30.625 10.5581 29.3169 9.25001 27.7083 9.25001H18.9583V7.22292C19.4031 6.82334 19.6875 6.24876 19.6875 5.60417C19.6875 5.02401 19.457 4.46761 19.0468 4.05738C18.6365 3.64714 18.0801 3.41667 17.5 3.41667C16.9198 3.41667 16.3634 3.64714 15.9532 4.05738C15.543 4.46761 15.3125 5.02401 15.3125 5.60417C15.3125 6.24876 15.5969 6.82334 16.0417 7.22292V9.25001H7.29165C5.68311 9.25001 4.37499 10.5581 4.37499 12.1667V16.5373L4.2554 16.546C3.88786 16.5726 3.54399 16.7373 3.29293 17.007C3.04186 17.2767 2.90222 17.6315 2.90207 18V20.9167C2.90207 21.3034 3.05571 21.6744 3.3292 21.9479C3.6027 22.2214 3.97363 22.375 4.3604 22.375H4.37499V29.6667C4.37499 31.2752 5.68311 32.5833 7.29165 32.5833H27.7083C29.3169 32.5833 30.625 31.2752 30.625 29.6667V22.375C31.0118 22.375 31.3827 22.2214 31.6562 21.9479C31.9297 21.6744 32.0833 21.3034 32.0833 20.9167V18.0904C32.1001 17.8641 32.0642 17.637 31.9783 17.4269ZM7.29165 29.6667V12.1667H27.7083L27.7098 17.9942L27.7083 18V20.9167L27.7098 20.924L27.7112 29.6667H7.29165Z" fill="white"/>
<path d="M12.3958 20.9167C13.604 20.9167 14.5833 19.6108 14.5833 18C14.5833 16.3892 13.604 15.0833 12.3958 15.0833C11.1877 15.0833 10.2083 16.3892 10.2083 18C10.2083 19.6108 11.1877 20.9167 12.3958 20.9167Z" fill="white"/>
<path d="M22.6042 20.9167C23.8123 20.9167 24.7917 19.6108 24.7917 18C24.7917 16.3892 23.8123 15.0833 22.6042 15.0833C21.396 15.0833 20.4167 16.3892 20.4167 18C20.4167 19.6108 21.396 20.9167 22.6042 20.9167Z" fill="white"/>
<path d="M11.6667 23.8333H23.3333V26.75H11.6667V23.8333Z" fill="white"/>
</svg>
