<svg width="16" height="15" viewBox="0 0 16 15" fill="none" xmlns="http://www.w3.org/2000/svg">
<path d="M10.169 1.28134L15.4926 10.1482C16.2576 11.4217 15.8819 13.0972 14.6528 13.8901C14.2404 14.1572 13.7595 14.2995 13.2681 14.3H2.6201C1.1734 14.3 0 13.0845 0 11.5838C0 11.0761 0.13744 10.5796 0.395636 10.1482L5.72004 1.28134C6.48431 0.00783189 8.10022 -0.382243 9.32923 0.410618C9.66926 0.629887 9.95685 0.927806 10.169 1.28134V1.28134ZM7.94451 11.1222C8.15521 11.1222 8.35728 11.0385 8.50627 10.8895C8.65526 10.7405 8.73896 10.5384 8.73896 10.3277C8.73896 10.117 8.65526 9.91497 8.50627 9.76599C8.35728 9.617 8.15521 9.5333 7.94451 9.5333C7.73381 9.5333 7.53173 9.617 7.38275 9.76599C7.23376 9.91497 7.15006 10.117 7.15006 10.3277C7.15006 10.5384 7.23376 10.7405 7.38275 10.8895C7.53173 11.0385 7.73381 11.1222 7.94451 11.1222V11.1222ZM7.94451 3.97214C7.73381 3.97214 7.53173 4.05584 7.38275 4.20483C7.23376 4.35382 7.15006 4.55589 7.15006 4.76659V7.94439C7.15006 8.1551 7.23376 8.35717 7.38275 8.50616C7.53173 8.65514 7.73381 8.73885 7.94451 8.73885C8.15521 8.73885 8.35728 8.65514 8.50627 8.50616C8.65526 8.35717 8.73896 8.1551 8.73896 7.94439V4.76659C8.73896 4.55589 8.65526 4.35382 8.50627 4.20483C8.35728 4.05584 8.15521 3.97214 7.94451 3.97214Z" fill="#8F92A3"/>
</svg>
