<svg width="38" height="102" viewBox="0 0 38 102" fill="brown" xmlns="http://www.w3.org/2000/svg">
<g clip-path="url(#clip0_404_8632)">
<path d="M37.562 86.5033L35.4665 91.3797L32.83 94.2177L28.8752 98.1908L25.5796 100.461L21.6248 101.596L17.011 100.461L13.0564 98.7588L9.76085 96.4886L6.46532 94.2183L3.16982 90.813L1.85162 89.6779L0.533407 88.5427L0.53348 85.7049L0.533944 67.5424L0.229915 60.6012L0.162574 51.5202L0.158365 50.9526L0.0615539 37.8987L0.0229868 32.6975L0.00218111 14.0604L4.06164 7.94693L6.69819 5.10898L8.01645 3.97379L11.3121 1.70341L16.3545 0.000546511L22.9456 1.70311L31.514 7.37864L37.0174 13.0543L37.0169 31.7842L37.2758 47.9089L37.3601 59.2602L37.3895 63.2331L37.4106 66.071L37.4199 67.338L37.562 86.5033Z" fill="#B38044"/>
<path d="M37.562 86.5033L35.4665 91.3797L32.83 94.2177L28.8752 98.1908L25.5796 100.461L21.6248 101.596L17.011 100.461L13.0564 98.7588L9.76085 96.4886L6.46532 94.2183L3.16982 90.813L1.85162 89.6779L0.533407 88.5427L0.53348 85.7049L0.533944 67.5424L0.229915 60.6012L0.162574 51.5202L0.158365 50.9526L0.0615539 37.8987L0.0229868 32.6975L0.00218111 14.0604L4.06164 7.94693L6.69819 5.10898L8.01645 3.97379L11.3121 1.70341L16.3545 0.000546511L22.9456 1.70311L31.514 7.37864L37.0174 13.0543L37.0169 31.7842L37.2758 47.9089L37.3601 59.2602L37.3895 63.2331L37.4106 66.071L37.4199 67.338L37.562 86.5033Z" />
<path d="M35.6558 86.4576L35 35.5" stroke="white" stroke-width="4" stroke-dasharray="12 12"/>
<path d="M2 35.0005L2.702 87.1924" stroke="white" stroke-width="4" stroke-dasharray="12 12"/>
<path d="M20.7515 99.5577C13.739 97.7997 8.54684 94.6345 2.172 86.5367" stroke="white" stroke-width="4" stroke-dasharray="12 12"/>
<path d="M20.2205 99.5565C27.2373 97.8146 29.6048 93.9926 36 85.9095" stroke="white" stroke-width="4" stroke-dasharray="12 12"/>
<path d="M2 15L2 35" stroke="white" stroke-width="4" stroke-dasharray="12 12"/>
<path d="M35.0001 35.9798L35 13" stroke="white" stroke-width="4" stroke-dasharray="12 12"/>
<path d="M16 1.99999C23.548 3.75083 28.6371 6.43961 35.5 14.5" stroke="white" stroke-width="4" stroke-dasharray="12 12"/>
<path d="M17 2C9.88486 3.74401 7.4844 7.57123 1 15.6654" stroke="white" stroke-width="4" stroke-dasharray="12 12"/>
</g>
<defs>
<clipPath id="clip0_404_8632">
<rect width="37.5643" height="101.597" fill="white"/>
</clipPath>
</defs>
</svg>
