<svg width="98" height="133" viewBox="0 0 98 133" fill="none" xmlns="http://www.w3.org/2000/svg">
<path d="M7 7H73C77.7739 7 82.3523 8.89642 85.728 12.2721C89.1036 15.6477 91 20.2261 91 25V109C91 110.591 90.3679 112.117 89.2427 113.243C88.1175 114.368 86.5913 115 85 115H67" stroke="white" stroke-width="13" stroke-linecap="round" stroke-linejoin="round"/>
<path d="M7 7L52.528 16.108C56.608 16.9235 60.2795 19.1272 62.9179 22.3444C65.5564 25.5615 66.9989 29.5933 67 33.754V119.68C66.9995 120.567 66.8021 121.444 66.4222 122.245C66.0422 123.047 65.4892 123.755 64.8028 124.317C64.1164 124.88 63.3139 125.283 62.453 125.498C61.592 125.713 60.6941 125.734 59.824 125.56L16.648 116.932C13.9267 116.388 11.478 114.918 9.71884 112.771C7.95971 110.625 6.9989 107.935 7 105.16V7Z" stroke="white" stroke-width="13" stroke-linecap="round" stroke-linejoin="round"/>
<path d="M49 67V79" stroke="white" stroke-width="13" stroke-linecap="round" stroke-linejoin="round"/>
</svg>
