<svg width="302" height="102" viewBox="0 0 302 102" fill="none" xmlns="http://www.w3.org/2000/svg">
<path d="M122.697 65.63C119.897 65.63 117.622 65 115.872 63.74C114.122 62.48 113.058 60.709 112.68 58.427L117.846 57.629C118.112 58.749 118.7 59.631 119.61 60.275C120.52 60.919 121.668 61.241 123.054 61.241C124.272 61.241 125.21 61.003 125.868 60.527C126.54 60.037 126.876 59.372 126.876 58.532C126.876 58.014 126.75 57.601 126.498 57.293C126.26 56.971 125.728 56.663 124.902 56.369C124.076 56.075 122.809 55.704 121.101 55.256C119.197 54.752 117.685 54.213 116.565 53.639C115.445 53.051 114.64 52.358 114.15 51.56C113.66 50.762 113.415 49.796 113.415 48.662C113.415 47.248 113.786 46.016 114.528 44.966C115.27 43.916 116.306 43.111 117.636 42.551C118.966 41.977 120.534 41.69 122.34 41.69C124.104 41.69 125.665 41.963 127.023 42.509C128.395 43.055 129.501 43.832 130.341 44.84C131.181 45.848 131.699 47.031 131.895 48.389L126.729 49.313C126.603 48.347 126.162 47.584 125.406 47.024C124.664 46.464 123.67 46.149 122.424 46.079C121.234 46.009 120.275 46.191 119.547 46.625C118.819 47.045 118.455 47.64 118.455 48.41C118.455 48.844 118.602 49.215 118.896 49.523C119.19 49.831 119.778 50.139 120.66 50.447C121.556 50.755 122.886 51.133 124.65 51.581C126.456 52.043 127.898 52.575 128.976 53.177C130.068 53.765 130.852 54.472 131.328 55.298C131.818 56.124 132.063 57.125 132.063 58.301C132.063 60.583 131.23 62.375 129.564 63.677C127.912 64.979 125.623 65.63 122.697 65.63ZM178.65 65.651C176.97 65.651 175.584 65.371 174.492 64.811C173.4 64.251 172.532 63.537 171.888 62.669C171.244 61.801 170.768 60.877 170.46 59.897C170.152 58.917 169.949 57.993 169.851 57.125C169.767 56.243 169.725 55.529 169.725 54.983V42.32H174.849V53.24C174.849 53.94 174.898 54.731 174.996 55.613C175.094 56.481 175.318 57.321 175.668 58.133C176.032 58.931 176.564 59.589 177.264 60.107C177.978 60.625 178.937 60.884 180.141 60.884C180.785 60.884 181.422 60.779 182.052 60.569C182.682 60.359 183.249 60.002 183.753 59.498C184.271 58.98 184.684 58.273 184.992 57.377C185.3 56.481 185.454 55.347 185.454 53.975L188.457 55.256C188.457 57.188 188.079 58.938 187.323 60.506C186.581 62.074 185.482 63.327 184.026 64.265C182.57 65.189 180.778 65.651 178.65 65.651ZM186.063 65V57.965H185.454V42.32H190.536V65H186.063ZM206.558 65.63C204.92 65.63 203.534 65.322 202.4 64.706C201.266 64.076 200.405 63.243 199.817 62.207C199.243 61.171 198.956 60.03 198.956 58.784C198.956 57.692 199.138 56.712 199.502 55.844C199.866 54.962 200.426 54.206 201.182 53.576C201.938 52.932 202.918 52.407 204.122 52.001C205.032 51.707 206.096 51.441 207.314 51.203C208.546 50.965 209.876 50.748 211.304 50.552C212.746 50.342 214.251 50.118 215.819 49.88L214.013 50.909C214.027 49.341 213.677 48.186 212.963 47.444C212.249 46.702 211.045 46.331 209.351 46.331C208.329 46.331 207.342 46.569 206.39 47.045C205.438 47.521 204.773 48.34 204.395 49.502L199.775 48.053C200.335 46.135 201.399 44.595 202.967 43.433C204.549 42.271 206.677 41.69 209.351 41.69C211.367 41.69 213.138 42.019 214.664 42.677C216.204 43.335 217.345 44.413 218.087 45.911C218.493 46.709 218.738 47.528 218.822 48.368C218.906 49.194 218.948 50.097 218.948 51.077V65H214.517V60.086L215.252 60.884C214.23 62.522 213.033 63.726 211.661 64.496C210.303 65.252 208.602 65.63 206.558 65.63ZM207.566 61.598C208.714 61.598 209.694 61.395 210.506 60.989C211.318 60.583 211.962 60.086 212.438 59.498C212.928 58.91 213.257 58.357 213.425 57.839C213.691 57.195 213.838 56.46 213.866 55.634C213.908 54.794 213.929 54.115 213.929 53.597L215.483 54.059C213.957 54.297 212.648 54.507 211.556 54.689C210.464 54.871 209.526 55.046 208.742 55.214C207.958 55.368 207.265 55.543 206.663 55.739C206.075 55.949 205.578 56.194 205.172 56.474C204.766 56.754 204.451 57.076 204.227 57.44C204.017 57.804 203.912 58.231 203.912 58.721C203.912 59.281 204.052 59.778 204.332 60.212C204.612 60.632 205.018 60.968 205.55 61.22C206.096 61.472 206.768 61.598 207.566 61.598ZM257.897 65V42.32H262.37V47.843L261.824 47.129C262.104 46.373 262.475 45.687 262.937 45.071C263.413 44.441 263.98 43.923 264.638 43.517C265.198 43.139 265.814 42.845 266.486 42.635C267.172 42.411 267.872 42.278 268.586 42.236C269.3 42.18 269.993 42.208 270.665 42.32V47.045C269.993 46.849 269.216 46.786 268.334 46.856C267.466 46.926 266.682 47.171 265.982 47.591C265.282 47.969 264.708 48.452 264.26 49.04C263.826 49.628 263.504 50.3 263.294 51.056C263.084 51.798 262.979 52.603 262.979 53.471V65H257.897ZM288.059 65.63C285.791 65.63 283.81 65.119 282.116 64.097C280.422 63.075 279.106 61.668 278.168 59.876C277.244 58.07 276.782 55.998 276.782 53.66C276.782 51.28 277.258 49.194 278.21 47.402C279.162 45.61 280.485 44.21 282.179 43.202C283.873 42.194 285.833 41.69 288.059 41.69C290.341 41.69 292.329 42.201 294.023 43.223C295.717 44.245 297.033 45.659 297.971 47.465C298.909 49.257 299.378 51.322 299.378 53.66C299.378 56.012 298.902 58.091 297.95 59.897C297.012 61.689 295.696 63.096 294.002 64.118C292.308 65.126 290.327 65.63 288.059 65.63ZM288.059 60.884C290.075 60.884 291.573 60.212 292.553 58.868C293.533 57.524 294.023 55.788 294.023 53.66C294.023 51.462 293.526 49.712 292.532 48.41C291.538 47.094 290.047 46.436 288.059 46.436C286.701 46.436 285.581 46.744 284.699 47.36C283.831 47.962 283.187 48.809 282.767 49.901C282.347 50.979 282.137 52.232 282.137 53.66C282.137 55.858 282.634 57.615 283.628 58.931C284.636 60.233 286.113 60.884 288.059 60.884Z" fill="black"/>
<path d="M149.536 65.63C147.45 65.63 145.63 65.105 144.076 64.055C142.522 63.005 141.318 61.577 140.464 59.771C139.61 57.965 139.183 55.928 139.183 53.66C139.183 51.364 139.61 49.32 140.464 47.528C141.332 45.722 142.557 44.301 144.139 43.265C145.721 42.215 147.583 41.69 149.725 41.69C151.881 41.69 153.687 42.215 155.143 43.265C156.613 44.301 157.726 45.722 158.482 47.528C159.238 49.334 159.616 51.378 159.616 53.66C159.616 55.914 159.238 57.951 158.482 59.771C157.726 61.577 156.599 63.005 155.101 64.055C153.603 65.105 151.748 65.63 149.536 65.63ZM150.313 61.094C151.671 61.094 152.763 60.786 153.589 60.17C154.429 59.54 155.038 58.665 155.416 57.545C155.808 56.425 156.004 55.13 156.004 53.66C156.004 52.176 155.808 50.881 155.416 49.775C155.038 48.655 154.443 47.787 153.631 47.171C152.819 46.541 151.769 46.226 150.481 46.226C149.123 46.226 148.003 46.562 147.121 47.234C146.239 47.892 145.588 48.788 145.168 49.922C144.748 51.042 144.538 52.288 144.538 53.66C144.538 55.046 144.741 56.306 145.147 57.44C145.567 58.56 146.204 59.449 147.058 60.107C147.912 60.765 148.997 61.094 150.313 61.094ZM155.374 75.08V58.238H156.004V42.32H160.477V75.08H155.374Z" fill="#E02016"/>
<path d="M237.288 65.63C235.202 65.63 233.382 65.105 231.828 64.055C230.274 63.005 229.07 61.577 228.216 59.771C227.362 57.965 226.935 55.928 226.935 53.66C226.935 51.364 227.362 49.32 228.216 47.528C229.084 45.722 230.309 44.301 231.891 43.265C233.473 42.215 235.335 41.69 237.477 41.69C239.633 41.69 241.439 42.215 242.895 43.265C244.365 44.301 245.478 45.722 246.234 47.528C246.99 49.334 247.368 51.378 247.368 53.66C247.368 55.914 246.99 57.951 246.234 59.771C245.478 61.577 244.351 63.005 242.853 64.055C241.355 65.105 239.5 65.63 237.288 65.63ZM238.065 61.094C239.423 61.094 240.515 60.786 241.341 60.17C242.181 59.54 242.79 58.665 243.168 57.545C243.56 56.425 243.756 55.13 243.756 53.66C243.756 52.176 243.56 50.881 243.168 49.775C242.79 48.655 242.195 47.787 241.383 47.171C240.571 46.541 239.521 46.226 238.233 46.226C236.875 46.226 235.755 46.562 234.873 47.234C233.991 47.892 233.34 48.788 232.92 49.922C232.5 51.042 232.29 52.288 232.29 53.66C232.29 55.046 232.493 56.306 232.899 57.44C233.319 58.56 233.956 59.449 234.81 60.107C235.664 60.765 236.749 61.094 238.065 61.094ZM243.756 65V49.082H243.126V34.76H248.229V65H243.756Z" fill="#DAA25D"/>
<path d="M100 58.2011C100 82.2583 77.6142 101.76 50 101.76C22.3858 101.76 0 82.2583 0 58.2011C0 34.144 22.3858 14.6418 50 14.6418C77.6142 14.6418 100 34.144 100 58.2011Z" fill="#808080"/>
<ellipse cx="50.0087" cy="51.2289" rx="49.0675" ry="36.5871" fill="white"/>
<path d="M55.5018 25.9239L46.5608 38.3978L27.6537 30.0589C25.091 28.8873 18.9975 28.0327 15.125 33.9871C11.2525 39.9415 14.8782 44.0949 17.1752 45.4273L35.1141 53.904L28.1663 62.5875C25.0531 66.0793 21.116 73.9587 30.2734 77.5424C39.4308 81.1261 43.4286 78.2545 44.2828 76.3708L54.8184 62.5875L71.0488 70.9953C73.7064 72.4655 80.1606 73.9449 84.7165 68.1008C89.2724 62.2567 84.5267 57.1201 81.5843 55.2823L65.9234 47.7015L74.2379 35.7789C76.0413 33.4817 78.2585 28.3635 70.4224 24.8901C62.5862 21.4167 57.2102 24.132 55.5018 25.9239Z" fill="#E6E6E6"/>
<path d="M44.6441 38.4018C46.2015 44.8327 49.3619 57.9701 49.5442 59.0725V60.6573L18.6622 46.1188C15.6234 44.8097 10.5827 40.648 14.7307 34.4743C18.8787 28.3007 24.5119 28.8703 26.81 29.9268L44.6441 38.4018Z" fill="#B3B3B3"/>
<path d="M55.3409 26.1303C58.5148 30.9869 64.7392 40.7098 64.9296 41.1581L75.3409 33.0928C76.4319 31.4117 77.2404 27.2662 69.2143 24.347C61.6087 21.5808 56.6515 24.5449 55.3409 26.1303Z" fill="#C4C4C4"/>
<path d="M51.1241 61.3529L67.0067 45.8475C68.6559 44.2487 77.1966 34.2701 75.9442 30.342L65.0712 41.0235L51.1241 61.3529Z" fill="#999999"/>
<path d="M54.1423 63.35L51.1241 61.3504L68.7209 43.9752L65.9874 47.6985L75.3269 52.387C80.7369 54.2027 90.3041 59.6957 85.2927 67.1422C80.2813 74.5887 73.068 72.3594 70.0877 70.3139L54.8257 62.4536L54.1423 63.35Z" fill="#C4C4C4"/>
<path d="M50.969 60.8453L37.7549 79.1306C40.445 79.5291 42.8479 78.1108 43.7131 77.3519L54.3316 63.2644L50.969 60.8453Z" fill="#999999"/>
<path d="M70.9319 26.144L66.6153 69.0948L17.1255 45.4715L15.4609 43.9986L21.361 1.2172L70.9319 26.144Z" fill="#D6281F"/>
<path d="M70.9319 26.144L66.6153 69.0948L17.1255 45.4715L15.4609 43.9986L21.361 1.2172L70.9319 26.144Z" stroke="white"/>
<path d="M83.1687 65.6241L72.7127 25.3332L70.9328 26.1351L66.6152 69.0948L74.5556 72.1878L83.1687 65.6241Z" fill="#500D0B"/>
<path d="M74.5643 72.1886L72.1014 26.9711L70.9328 26.1353L66.6153 69.0948L74.5643 72.1886Z" fill="#9E1917"/>
<path d="M72.7127 25.3332L70.9319 26.144L72.1014 26.9711L72.2229 26.6329L72.7127 25.3332Z" fill="#981916"/>
<path d="M72.7127 25.3332L70.9319 26.144L72.1014 26.9711L72.2229 26.6329L72.7127 25.3332Z" stroke="black"/>
<g style="mix-blend-mode:darken">
<path d="M72.7276 25.326L70.932 26.144L21.3633 1.21743L22.9264 0.305893L25.0093 0.965702L71.8108 23.8386L72.7276 25.326Z" fill="#8F1714"/>
<path d="M72.7276 25.326L70.932 26.144L21.3633 1.21743L22.9264 0.305893L25.0093 0.965702L71.8108 23.8386L72.7276 25.326Z" stroke="white"/>
</g>
</svg>
