<svg width="25" height="32" viewBox="0 0 25 32" fill="none" xmlns="http://www.w3.org/2000/svg">
<g filter="url(#filter0_d_28_22)">
<path d="M15.1992 10.2895L19.3 1L15.1992 10.2895ZM9.7476 10.4952L5 1L9.7476 10.4952ZM13.5371 9.8528L9.2185 1L13.5371 9.8528ZM15.296 1L14.152 3.75L15.296 1ZM6.1 16.4C6.1 18.1504 6.79536 19.8292 8.0331 21.0669C9.27084 22.3046 10.9496 23 12.7 23C14.4504 23 16.1292 22.3046 17.3669 21.0669C18.6046 19.8292 19.3 18.1504 19.3 16.4C19.3 14.6496 18.6046 12.9708 17.3669 11.7331C16.1292 10.4954 14.4504 9.8 12.7 9.8C10.9496 9.8 9.27084 10.4954 8.0331 11.7331C6.79536 12.9708 6.1 14.6496 6.1 16.4V16.4Z" stroke="#8F92A3" stroke-width="1.5" stroke-linecap="round" stroke-linejoin="round"/>
<path d="M11.05 15.3L13.25 13.65V19.15" stroke="#8F92A3" stroke-width="1.5" stroke-linecap="round" stroke-linejoin="round"/>
</g>
<defs>
<filter id="filter0_d_28_22" x="0.249832" y="0.249802" width="23.8004" height="31.5002" filterUnits="userSpaceOnUse" color-interpolation-filters="sRGB">
<feFlood flood-opacity="0" result="BackgroundImageFix"/>
<feColorMatrix in="SourceAlpha" type="matrix" values="0 0 0 0 0 0 0 0 0 0 0 0 0 0 0 0 0 0 127 0" result="hardAlpha"/>
<feOffset dy="4"/>
<feGaussianBlur stdDeviation="2"/>
<feComposite in2="hardAlpha" operator="out"/>
<feColorMatrix type="matrix" values="0 0 0 0 0 0 0 0 0 0 0 0 0 0 0 0 0 0 0.25 0"/>
<feBlend mode="normal" in2="BackgroundImageFix" result="effect1_dropShadow_28_22"/>
<feBlend mode="normal" in="SourceGraphic" in2="effect1_dropShadow_28_22" result="shape"/>
</filter>
</defs>
</svg>
