<svg width="94" height="32" viewBox="0 0 94 32" fill="none" xmlns="http://www.w3.org/2000/svg">
<path d="M10.4709 31.0995L80.9114 31.3333L67.3468 18.7065L0 18.9403L10.4709 31.0995Z" fill="#D6281F"/>
<path d="M12.1009 0L80.4354 0L66.9109 12.6269L0 13.3284L12.1009 0Z" fill="#871612"/>
<path d="M0 18.9403L67.3468 18.9403L69.7266 15.6667L67.1089 12.6269L0 13.3284L0 18.9403Z" fill="#E96663"/>
<path d="M69.4886 15.6667L94 15.199C92.1988 21.8001 89.2383 25.3246 80.9114 31.3333L67.3468 18.9403L69.4886 15.6667Z" fill="#E1362D"/>
<path d="M69.4887 15.6667L94.0001 15.199C92.1989 8.59786 88.7624 6.00873 80.4355 0L66.8709 12.6269L69.4887 15.6667Z" fill="#B41E18"/>
</svg>
