<svg width="32" height="94" viewBox="0 0 32 94" fill="none" xmlns="http://www.w3.org/2000/svg">
<path d="M0.231752 10.4709L0 80.9114L12.5146 67.3468L12.2829 0L0.231752 10.4709Z" fill="#DAA25D"/>
<path d="M31.0548 12.1009V80.4354L18.5402 66.9109L17.8449 0L31.0548 12.1009Z" fill="#B1541B"/>
<path d="M12.2829 0V67.3468L15.5274 69.7266L18.5402 67.1089L17.8449 0L12.2829 0Z" fill="#F4BD5C"/>
<path d="M15.5274 69.4886L15.9909 94C9.44844 92.1988 5.95531 89.2383 0 80.9114L12.2829 67.3468L15.5274 69.4886Z" fill="#D68D39"/>
<path d="M15.5274 69.4887L15.9909 94.0001C22.5334 92.1989 25.0995 88.7624 31.0548 80.4355L18.5402 66.8709L15.5274 69.4887Z" fill="#C75F1E"/>
</svg>
