<svg width="21" height="28" viewBox="0 0 21 28" fill="none" xmlns="http://www.w3.org/2000/svg">
<path d="M18.375 3.5H14C14 1.56953 12.4305 0 10.5 0C8.56953 0 7 1.56953 7 3.5H2.625C1.17578 3.5 0 4.67578 0 6.125V25.375C0 26.8242 1.17578 28 2.625 28H18.375C19.8242 28 21 26.8242 21 25.375V6.125C21 4.67578 19.8242 3.5 18.375 3.5ZM5.25 23.1875C4.52266 23.1875 3.9375 22.6023 3.9375 21.875C3.9375 21.1477 4.52266 20.5625 5.25 20.5625C5.97734 20.5625 6.5625 21.1477 6.5625 21.875C6.5625 22.6023 5.97734 23.1875 5.25 23.1875ZM5.25 17.9375C4.52266 17.9375 3.9375 17.3523 3.9375 16.625C3.9375 15.8977 4.52266 15.3125 5.25 15.3125C5.97734 15.3125 6.5625 15.8977 6.5625 16.625C6.5625 17.3523 5.97734 17.9375 5.25 17.9375ZM5.25 12.6875C4.52266 12.6875 3.9375 12.1023 3.9375 11.375C3.9375 10.6477 4.52266 10.0625 5.25 10.0625C5.97734 10.0625 6.5625 10.6477 6.5625 11.375C6.5625 12.1023 5.97734 12.6875 5.25 12.6875ZM10.5 2.1875C11.2273 2.1875 11.8125 2.77266 11.8125 3.5C11.8125 4.22734 11.2273 4.8125 10.5 4.8125C9.77266 4.8125 9.1875 4.22734 9.1875 3.5C9.1875 2.77266 9.77266 2.1875 10.5 2.1875ZM17.5 22.3125C17.5 22.5531 17.3031 22.75 17.0625 22.75H9.1875C8.94687 22.75 8.75 22.5531 8.75 22.3125V21.4375C8.75 21.1969 8.94687 21 9.1875 21H17.0625C17.3031 21 17.5 21.1969 17.5 21.4375V22.3125ZM17.5 17.0625C17.5 17.3031 17.3031 17.5 17.0625 17.5H9.1875C8.94687 17.5 8.75 17.3031 8.75 17.0625V16.1875C8.75 15.9469 8.94687 15.75 9.1875 15.75H17.0625C17.3031 15.75 17.5 15.9469 17.5 16.1875V17.0625ZM17.5 11.8125C17.5 12.0531 17.3031 12.25 17.0625 12.25H9.1875C8.94687 12.25 8.75 12.0531 8.75 11.8125V10.9375C8.75 10.6969 8.94687 10.5 9.1875 10.5H17.0625C17.3031 10.5 17.5 10.6969 17.5 10.9375V11.8125Z" fill="#8F92A3"/>
</svg>
