<svg width="640" height="448" viewBox="0 0 640 448" fill="none" xmlns="http://www.w3.org/2000/svg">
<path d="M634.91 122.88C457.74 -40.99 182.19 -40.93 5.09 122.88C-1.57 129.04 -1.7 139.47 4.74 145.86L38.98 179.83C45.12 185.93 55 186.06 61.38 180.21C207.3 46.53 432.68 46.5 578.63 180.21C585.01 186.06 594.89 185.92 601.03 179.83L635.27 145.86C641.7 139.47 641.57 129.04 634.91 122.88ZM320 320C284.65 320 256 348.65 256 384C256 419.35 284.65 448 320 448C355.35 448 384 419.35 384 384C384 348.65 355.35 320 320 320ZM522.67 236.41C407.41 134.48 232.46 134.59 117.33 236.41C110.43 242.51 110.21 253.1 116.76 259.56L151.2 293.55C157.2 299.47 166.86 299.87 173.25 294.35C257.2 221.78 382.99 221.94 466.74 294.35C473.13 299.87 482.79 299.48 488.79 293.55L523.23 259.56C529.79 253.1 529.56 242.5 522.67 236.41V236.41Z" fill="white"/>
</svg>
